<svg width="39" height="32" viewBox="0 0 39 32" fill="none" xmlns="http://www.w3.org/2000/svg">
<path fill-rule="evenodd" clip-rule="evenodd" d="M27.1914 0.908676H35.0922C37.2545 0.908676 39.0059 2.66008 39.0059 4.82235V27.1755C39.0059 29.3419 37.2545 31.0933 35.0922 31.0933H12.739C11.1079 31.0933 9.71149 30.0987 9.12516 28.6802C9.99895 28.5963 10.7941 28.1513 11.3246 27.438C12.0824 26.4295 12.9627 25.6698 13.9379 25.1565C17.6123 23.2411 19.8987 19.4761 19.8987 15.3309C19.8987 9.24219 14.9522 4.28389 8.86568 4.2584C9.13886 2.36357 10.7683 0.908676 12.7391 0.908676H20.6394V3.82399C20.6394 4.3911 21.1034 4.85079 21.6662 4.85079H26.1646C26.7316 4.85079 27.1914 4.3911 27.1914 3.82399V0.908676ZM24.4898 24.8053V27.2394C24.4898 27.5798 24.7659 27.856 25.1063 27.856H34.2037C34.5441 27.856 34.8203 27.5798 34.8203 27.2394V24.8053C34.8203 24.4649 34.5442 24.1887 34.2037 24.1887H25.1063C24.766 24.1888 24.4898 24.4649 24.4898 24.8053Z" fill="white"/>
<path fill-rule="evenodd" clip-rule="evenodd" d="M8.12047 26.0987C7.19195 24.8438 5.98726 23.8337 4.61961 23.0935C1.58312 21.4496 -0.374378 18.0807 0.0521851 14.2974C0.510153 10.2697 3.77273 7.01355 7.80047 6.56175C13.1395 5.96581 17.6504 10.1317 17.6504 15.3326C17.6504 18.7456 15.7243 21.6943 12.8949 23.1687C11.5648 23.8651 10.4292 24.8878 9.52578 26.0924L9.52273 26.0965C9.17398 26.5667 8.4707 26.5678 8.12047 26.0987ZM8.82289 19.4763C6.53867 19.4763 4.67914 17.622 4.67914 15.3325C4.67914 13.0483 6.53875 11.1887 8.82289 11.1887C11.1126 11.1887 12.9668 13.0483 12.9668 15.3325C12.9668 17.6221 11.1126 19.4763 8.82289 19.4763Z" fill="#EA0C0C"/>
</svg>
