<svg width="41" height="40" viewBox="0 0 41 40" fill="none" xmlns="http://www.w3.org/2000/svg">
<g clip-path="url(#clip0_18603_6809)">
<path fill-rule="evenodd" clip-rule="evenodd" d="M28.1914 4.90868H36.0922C38.2545 4.90868 40.0059 6.66008 40.0059 8.82235V31.1755C40.0059 33.3419 38.2545 35.0933 36.0922 35.0933H13.739C12.1079 35.0933 10.7115 34.0987 10.1252 32.6802C10.999 32.5963 11.7941 32.1513 12.3246 31.438C13.0824 30.4295 13.9627 29.6698 14.9379 29.1565C18.6123 27.2411 20.8987 23.4761 20.8987 19.3309C20.8987 13.2422 15.9522 8.28389 9.86568 8.2584C10.1389 6.36357 11.7683 4.90868 13.7391 4.90868H21.6394V7.82399C21.6394 8.3911 22.1034 8.85079 22.6662 8.85079H27.1646C27.7316 8.85079 28.1914 8.3911 28.1914 7.82399V4.90868ZM25.4898 28.8053V31.2394C25.4898 31.5798 25.7659 31.856 26.1063 31.856H35.2037C35.5441 31.856 35.8203 31.5798 35.8203 31.2394V28.8053C35.8203 28.4649 35.5442 28.1887 35.2037 28.1887H26.1063C25.766 28.1888 25.4898 28.4649 25.4898 28.8053Z" fill="white"/>
<path fill-rule="evenodd" clip-rule="evenodd" d="M9.12047 30.0987C8.19195 28.8438 6.98726 27.8337 5.61961 27.0935C2.58312 25.4496 0.625622 22.0807 1.05219 18.2974C1.51015 14.2697 4.77273 11.0135 8.80047 10.5618C14.1395 9.96581 18.6504 14.1317 18.6504 19.3326C18.6504 22.7456 16.7243 25.6943 13.8949 27.1687C12.5648 27.8651 11.4292 28.8878 10.5258 30.0924L10.5227 30.0965C10.174 30.5667 9.4707 30.5678 9.12047 30.0987ZM9.82289 23.4763C7.53867 23.4763 5.67914 21.622 5.67914 19.3325C5.67914 17.0483 7.53875 15.1887 9.82289 15.1887C12.1126 15.1887 13.9668 17.0483 13.9668 19.3325C13.9668 21.6221 12.1126 23.4763 9.82289 23.4763Z" fill="#EA0C0C"/>
</g>
<defs>
<clipPath id="clip0_18603_6809">
<rect width="40" height="40" fill="white" transform="matrix(-1 0 0 1 40.5 0)"/>
</clipPath>
</defs>
</svg>
