<svg width="32" height="32" viewBox="0 0 32 32" fill="none" xmlns="http://www.w3.org/2000/svg">
<g clip-path="url(#clip0_18933_5213)">
<path d="M19.2867 11.6885L19.4043 11.9655L19.704 11.9913L28.1138 12.7165L21.7393 18.2489L21.5119 18.4462L21.5799 18.7394L23.4861 26.9606L16.2587 22.5984L16.0003 22.4425L15.742 22.5984L8.51646 26.9595L10.4339 18.7401L10.5025 18.4462L10.2744 18.2486L3.89008 12.7179L12.2959 12.0047L12.5964 11.9792L12.714 11.7016L16.0007 3.94698L19.2867 11.6885ZM10.5001 23.4461L10.2303 24.6007L11.2454 23.9879L16.0001 21.1174L20.7682 24.001L21.7839 24.6153L21.5139 23.4594L20.2492 18.0465L24.448 14.4042L25.3399 13.6304L24.1635 13.5284L18.6234 13.0477L16.4608 7.93828L15.9995 6.84858L15.5396 7.93884L13.3901 13.0344L7.85044 13.515L6.67405 13.6171L7.56602 14.3909L11.7648 18.0332L10.5001 23.4461Z" fill="#F2C94C" stroke="#F2C94C"/>
</g>
<defs>
<clipPath id="clip0_18933_5213">
<rect width="32" height="32" fill="white"/>
</clipPath>
</defs>
</svg>
