<svg width="33" height="32" viewBox="0 0 33 32" fill="none" xmlns="http://www.w3.org/2000/svg">
<g clip-path="url(#clip0_18509_161)">
<path d="M16.4629 31.9999C25.2994 31.9999 32.4628 24.8365 32.4628 16C32.4628 7.16343 25.2994 0 16.4629 0C7.62632 0 0.462891 7.16343 0.462891 16C0.462891 24.8365 7.62632 31.9999 16.4629 31.9999Z" fill="#41B4E6"/>
<path d="M22.062 26.0599H10.8641C8.40048 26.0599 6.40332 24.0628 6.40332 21.5992V10.4012C6.40332 7.93759 8.40042 5.94043 10.8641 5.94043H22.0621C24.5257 5.94043 26.5229 7.93753 26.5229 10.4012V21.5992C26.5228 24.0628 24.5257 26.0599 22.062 26.0599Z" fill="#6E64C3"/>
<path d="M15.0685 14.214C15.2227 14.1007 15.3252 13.9307 15.3536 13.7414C15.382 13.5522 15.3336 13.3596 15.2193 13.2062L14.4616 12.1881C14.3727 12.0686 14.2393 11.9903 14.0917 11.9706C13.944 11.951 13.7946 11.9917 13.6776 12.0838C13.5379 12.1937 13.3815 12.3165 13.2335 12.4317C12.8692 12.7154 12.7317 13.2021 12.8929 13.6347C13.7823 16.0213 15.652 17.914 18.0231 18.8338C18.5108 19.023 19.0643 18.8273 19.3233 18.3729L19.6144 17.8619C19.7575 17.6109 19.6826 17.2919 19.4427 17.1308L18.5155 16.5078C18.3534 16.399 18.1541 16.3608 17.9633 16.402C17.7724 16.4431 17.6062 16.5601 17.5035 16.7262C17.4732 16.7752 17.4439 16.8228 17.4165 16.8671C17.3783 16.9291 17.3167 16.9729 17.2457 16.9888C17.1747 17.0046 17.1003 16.991 17.0394 16.9511C16.1504 16.369 15.3909 15.6082 14.8104 14.718C14.7316 14.5973 14.7618 14.4359 14.879 14.3519C14.9374 14.3099 15.0021 14.2627 15.0685 14.214Z" fill="white"/>
<path d="M19.9267 15.5282C19.7736 15.5282 19.6494 15.404 19.6494 15.2509C19.6494 13.4259 18.1647 11.9412 16.3397 11.9412C16.1866 11.9412 16.0625 11.817 16.0625 11.664C16.0625 11.5108 16.1867 11.3867 16.3397 11.3867C18.4705 11.3867 20.2039 13.1203 20.2039 15.2509C20.2039 15.404 20.0799 15.5282 19.9267 15.5282Z" fill="white"/>
<path d="M19.0578 15.5275C18.9047 15.5275 18.7806 15.4033 18.7806 15.2502C18.7806 13.9043 17.6856 12.8094 16.3397 12.8094C16.1866 12.8094 16.0625 12.6852 16.0625 12.5321C16.0625 12.379 16.1867 12.2549 16.3397 12.2549C17.9914 12.2549 19.3351 13.5986 19.3351 15.2503C19.3351 15.4033 19.2109 15.5275 19.0578 15.5275Z" fill="white"/>
<path d="M18.2045 15.5286C18.0513 15.5286 17.9272 15.4044 17.9272 15.2513C17.9272 14.376 17.215 13.6639 16.3397 13.6639C16.1866 13.6639 16.0625 13.5397 16.0625 13.3866C16.0625 13.2335 16.1867 13.1094 16.3397 13.1094C17.5208 13.1094 18.4818 14.0703 18.4818 15.2514C18.4818 15.4045 18.3576 15.5286 18.2045 15.5286Z" fill="white"/>
<path d="M23.3494 13.8801C23.3494 11.1029 21.0981 8.85156 18.3209 8.85156H14.7607C11.8984 8.85156 9.57812 11.1718 9.57812 14.0341V16.2696C9.57812 18.4779 10.9599 20.3623 12.9055 21.1088V22.8647C12.9055 23.0727 13.0365 23.2614 13.2314 23.3342C13.288 23.3554 13.347 23.3655 13.4054 23.3655C13.5483 23.3655 13.6885 23.3046 13.7853 23.1931L15.2955 21.4522H18.3209C21.0982 21.4522 23.3495 19.2009 23.3495 16.4236V13.8801H23.3494ZM22.1788 16.4236C22.1788 18.5509 20.4482 20.2815 18.3209 20.2815H15.639L13.5725 22.6846C13.5455 22.7159 13.5018 22.7272 13.463 22.7129C13.4242 22.6985 13.3984 22.6615 13.3984 22.6201C13.3984 22.1081 13.3984 20.9581 13.3984 20.043C11.8549 19.484 10.7489 18.0037 10.7489 16.2696V14.0342C10.7489 11.822 12.5486 10.0223 14.7607 10.0223H18.321C20.4482 10.0223 22.1788 11.7529 22.1788 13.8801V16.4236H22.1788Z" fill="white"/>
</g>
<defs>
<clipPath id="clip0_18509_161">
<rect width="32" height="32" fill="white" transform="translate(0.462891)"/>
</clipPath>
</defs>
</svg>
